:SAMPLES-PER-SECOND 30
:FULLY-SPECIFIED
:DEGREES
177
root  10.23719968 36.36822137 -0.8004844658 -3.302001953 -14.04100037 3.947998047
lowerback  13.64140034 0.1750389934 -8.680959702
upperback  5.501649857 -0.9220229983 -0.618054986
thorax  -1.678940058 -0.575864017 4.381780148
lowerneck  1.184489965 3.346600056 -6.865029812
upperneck  10.10700035 3.727269888 10.2670002
head  2.436680079 1.916260004 4.293690205
lclavicle  0 -9.442270133e-015 7.951389973e-016
lhumerus  20.26919937 -19.68989944 82.60369873
lradius  2.196343994e-031 -2.764944321e-031 128.4620056
lwrist  -1.412450015e-030 1.324171889e-031 25.19420052
lhand  -1.496451383e-031 -27.76390076 20.11240005
lfingers  90 7.125020027 -90
lthumb  89.89689403 5.08795885 91.16245106
rclavicle  0 -9.442270133e-015 7.951389973e-016
rhumerus  37.10749817 1.56092 -78.60220337
rradius  -1.891550994e-031 2.981757682e-031 122.3899994
rwrist  7.062250077e-031 3.531125038e-031 -45.29330063
rhand  -7.920061211e-032 -33.2840004 9.303460121
rfingers  -90 -7.125020027 -90
rthumb  -92.93752616 -24.25625642 -97.11982154
rfemur  -26.6602993 12.62749958 -4.943910122
rtibia  -0 0 64.76799774
rfoot  -0 -20.29059982 -8.273209572
rtoes  5.373923086 19.29304026 -105.8922705
lfemur  -24.42210007 -0.7376779914 -6.936480045
ltibia  -0 0 58.90480042
lfoot  5.46967551e-032 -24.7901001 0.672228992
ltoes  -4.250644065 -19.5611806 -102.515957
178
root  10.03888874 36.3308884 -0.9146221979 -3.619995117 -13.2519989 3.345001221
lowerback  14.11690044 0.145468995 -8.473939896
upperback  5.808589935 -0.9655799866 -0.5641300082
thorax  -1.607220054 -0.6084849834 4.3332901
lowerneck  1.582460046 3.17463994 -7.094989777
upperneck  9.472740173 3.484440088 10.77579975
head  2.186969995 1.787829995 4.467539787
lclavicle  0 -9.442270133e-015 7.951389973e-016
lhumerus  20.93549919 -20.33959961 82.53769684
lradius  2.16906932e-031 -2.786392349e-031 127.8990021
lwrist  -7.062250077e-031 1.324171889e-031 24.64430046
lhand  -1.496451383e-031 -27.76390076 20.11240005
lfingers  90 7.125020027 -90
lthumb  89.89689403 5.08795885 91.16245106
rclavicle  0 -9.442270133e-015 7.951389973e-016
rhumerus  37.48149872 0.9886929989 -78.78980255
rradius  -1.906463242e-031 2.97224527e-031 122.677002
rwrist  7.062250077e-031 5.296687558e-031 -45.84870148
rhand  -7.920061211e-032 -33.2840004 9.303460121
rfingers  -90 -7.125020027 -90
rthumb  -92.93752616 -24.25625642 -97.11982154
rfemur  -26.30209923 12.54269981 -3.971790075
rtibia  -0 0 65.35410309
rfoot  -0 -20.59029961 -7.919690132
rtoes  5.373923086 19.29304026 -105.8922705
lfemur  -24.81340027 -0.6155670285 -5.980879784
ltibia  -0 0 59.52149963
lfoot  6.035846579e-032 -23.92140007 0.9754400253
ltoes  -4.250644065 -19.5611806 -102.515957
179
root  9.855977757 36.34933412 -0.9945999919 -3.979995728 -13.0059967 2.649993896
lowerback  14.22770023 0.2058780044 -7.984819889
upperback  6.028170109 -0.8233690262 -0.5653820038
thorax  -1.466339946 -0.5435180068 4.034900188
lowerneck  2.722830057 3.093230009 -7.203100204
upperneck  8.903120041 3.330529928 11.12730026
head  1.834280014 1.679620028 4.563910007
lclavicle  0 -9.442270133e-015 7.951389973e-016
lhumerus  20.90620041 -20.88269997 82.67350006
lradius  2.141144417e-031 -2.807907517e-031 127.3270035
lwrist  -7.062250077e-031 -4.413906298e-032 24.17099953
lhand  -1.496451383e-031 -27.76390076 20.11240005
lfingers  90 7.125020027 -90
lthumb  89.89689403 5.08795885 91.16245106
rclavicle  0 -9.442270133e-015 7.951389973e-016
rhumerus  37.29539871 0.6276789904 -79.04540253
rradius  -1.919258812e-031 2.963998929e-031 122.9240036
rwrist  7.062250077e-031 7.062250077e-031 -46.24290085
rhand  -7.920061211e-032 -33.2840004 9.303460121
rfingers  -90 -7.125020027 -90
rthumb  -92.93752616 -24.25625642 -97.11982154
rfemur  -25.74950027 12.74800014 -2.781339884
rtibia  -0 0 65.4673996
rfoot  -0 -20.7064991 -7.899380207
rtoes  5.373923086 19.29304026 -105.8922705
lfemur  -24.70890045 -0.2534790039 -5.004199982
ltibia  -0 0 59.86259842
lfoot  4.803370206e-032 -23.23150063 1.088529944
ltoes  -4.250644065 -19.5611806 -102.515957
180
root  9.703066969 36.40822163 -1.044704407 -4.283996582 -13.21400452 2.093994141
lowerback  14.12800026 0.3919920027 -7.535520077
upperback  6.045340061 -0.5105800033 -0.5478109717
thorax  -1.444390059 -0.3828150034 3.752619982
lowerneck  4.156939983 3.029809952 -7.200250149
upperneck  8.768429756 3.169640064 11.22200012
head  1.572160006 1.558670044 4.569600105
lclavicle  0 -9.442270133e-015 7.951389973e-016
lhumerus  20.23040009 -21.23040009 83.19309998
lradius  2.106234887e-031 -2.834187474e-031 126.6179962
lwrist  -7.062250077e-031 1.324171889e-031 24.19529915
lhand  -1.496451383e-031 -27.76390076 20.11240005
lfingers  90 7.125020027 -90
lthumb  89.89689403 5.08795885 91.16245106
rclavicle  0 -9.442270133e-015 7.951389973e-016
rhumerus  36.63650131 0.5149549842 -79.23660278
rradius  -1.91951732e-031 2.963831522e-031 122.9290009
rwrist  7.062250077e-031 5.296687558e-031 -46.63579941
rhand  -7.920061211e-032 -33.2840004 9.303460121
rfingers  -90 -7.125020027 -90
rthumb  -92.93752616 -24.25625642 -97.11982154
rfemur  -25.16349983 13.0017004 -1.736189961
rtibia  -0 0 65.17579651
rfoot  -0 -20.75090027 -8.191900253
rtoes  5.373923086 19.29304026 -105.8922705
lfemur  -24.28730011 0.2351520061 -4.271560192
ltibia  -0 0 59.88940048
lfoot  4.785339188e-032 -22.72330093 1.468219995
ltoes  -4.250644065 -19.5611806 -102.515957
181
root  9.583155564 36.49933282 -1.060304398 -4.488998413 -13.69999695 1.720001221
lowerback  13.9762001 0.6005349755 -7.113379955
upperback  5.98679018 -0.1720470041 -0.5425779819
thorax  -1.472169995 -0.2056829929 3.469209909
lowerneck  4.709780216 2.969640017 -7.114999771
upperneck  9.565150261 3.004029989 11.12650013
head  1.734869957 1.468989968 4.533370018
lclavicle  0 -9.442270133e-015 7.951389973e-016
lhumerus  19.35840034 -21.30039978 83.85040283
lradius  2.062007939e-031 -2.8665253e-031 125.7289963
lwrist  -7.062250077e-031 8.827812596e-032 24.49440002
lhand  -1.496451383e-031 -27.76390076 20.11240005
lfingers  90 7.125020027 -90
lthumb  89.89689403 5.08795885 91.16245106
rclavicle  0 -9.442270133e-015 7.951389973e-016
rhumerus  35.88899994 0.7486220002 -79.41750336
rradius  -1.903453558e-031 2.974173598e-031 122.6190033
rwrist  0 1.765562519e-031 -46.75550079
rhand  -7.920061211e-032 -33.2840004 9.303460121
rfingers  -90 -7.125020027 -90
rthumb  -92.93752616 -24.25625642 -97.11982154
rfemur  -24.52120018 13.12880039 -0.9455189705
rtibia  -0 0 64.45040131
rfoot  -0 -21.08600044 -8.292519569
rtoes  5.373923086 19.29304026 -105.8922705
lfemur  -23.62150002 0.6223989725 -3.82449007
ltibia  -0 0 59.59379959
lfoot  7.158422867e-032 -22.34600067 2.474100113
ltoes  -4.250644065 -19.5611806 -102.515957
182
root  9.487378128 36.62822153 -1.0573267 -4.507995605 -14.52400208 1.757995605
lowerback  13.53859997 0.8237259984 -6.872340202
upperback  5.862569809 0.1776770055 -0.7274590135
thorax  -1.410109997 -0.02493849955 3.086810112
lowerneck  4.711070061 2.980590105 -7.000460148
upperneck  10.89179993 2.926569939 11.02140045
head  2.136219978 1.44441998 4.505959988
lclavicle  0 -9.442270133e-015 7.951389973e-016
lhumerus  18.34910011 -21.25189972 84.36460114
lradius  2.017082357e-031 -2.898313786e-031 124.8359985
lwrist  0 -8.827812596e-032 24.70420074
lhand  -1.496451383e-031 -27.76390076 20.11240005
lfingers  90 7.125020027 -90
lthumb  89.89689403 5.08795885 91.16245106
rclavicle  0 -9.442270133e-015 7.951389973e-016
rhumerus  35.11830139 1.306849957 -79.76869965
rradius  -1.877635518e-031 2.990539901e-031 122.1230011
rwrist  7.062250077e-031 3.531125038e-031 -46.40620041
rhand  -7.920061211e-032 -33.2840004 9.303460121
rfingers  -90 -7.125020027 -90
rthumb  -92.93752616 -24.25625642 -97.11982154
rfemur  -24.15099907 13.1814003 -0.6966310143
rtibia  -0 0 63.38499832
rfoot  -0 -21.48069954 -8.111020088
rtoes  5.373923086 19.29304026 -105.8922705
lfemur  -22.95240021 0.9599040151 -3.871390104
ltibia  -0 0 59.06489944
lfoot  4.756056928e-032 -21.86560059 3.945240021
ltoes  -4.250644065 -19.5611806 -102.515957
183
root  9.39304472 36.79644367 -1.044335515 -4.447006226 -15.3500061 2.12600708
lowerback  12.93470001 0.965692997 -6.901740074
upperback  5.606770039 0.3939619958 -1.008810043
thorax  -1.376350045 0.09083899856 2.778520107
lowerneck  5.154620171 3.099960089 -7.073420048
upperneck  12.07089996 2.973560095 10.97649956
head  2.40741992 1.460100055 4.520410061
lclavicle  0 -9.442270133e-015 7.951389973e-016
lhumerus  16.98270035 -21.08300018 84.78479767
lradius  1.971513502e-031 -2.929501416e-031 123.9400024
lwrist  -1.412450015e-030 1.324171889e-031 24.5814991
lhand  -1.496451383e-031 -27.76390076 20.11240005
lfingers  90 7.125020027 -90
lthumb  89.89689403 5.08795885 91.16245106
rclavicle  0 -9.442270133e-015 7.951389973e-016
rhumerus  34.11930084 2.247060061 -80.27339935
rradius  -1.84726677e-031 3.009393546e-031 121.5429993
rwrist  7.062250077e-031 1.059337512e-030 -45.87860107
rhand  -7.920061211e-032 -33.2840004 9.303460121
rfingers  -90 -7.125020027 -90
rthumb  -92.93752616 -24.25625642 -97.11982154
rfemur  -23.76469994 13.01659966 -0.8494110107
rtibia  -0 0 62.02009964
rfoot  -0 -21.83060074 -7.881840229
rtoes  5.373923086 19.29304026 -105.8922705
lfemur  -22.3246994 0.9619709849 -4.34528017
ltibia  -0 0 58.38479996
lfoot  4.738178556e-032 -21.32040024 5.329939842
ltoes  -4.250644065 -19.5611806 -102.515957
